<?xml version="1.0" encoding="UTF-8"?><svg id="uuid-90be5213-91b6-4e36-8538-48f4ec251148" xmlns="http://www.w3.org/2000/svg" viewBox="0 0 933.35 373.48"><defs><style>.uuid-916705e4-a869-4435-b87e-7bedd7ab69a2{fill:none;stroke:#fff;stroke-width:4px;}.uuid-6bea152e-99ec-43aa-af5e-23fd841b91d1,.uuid-28d55f3b-a6c8-4f0f-af0d-3a766c670a78{fill:#fff;stroke-width:0px;}.uuid-28d55f3b-a6c8-4f0f-af0d-3a766c670a78{fill-rule:evenodd;}</style></defs><g id="uuid-77e86e09-d99f-4903-9b00-b01507bd9d86"><rect class="uuid-6bea152e-99ec-43aa-af5e-23fd841b91d1" x="353.48" y="277.74" width="238.7" height="71.61" vector-effect="non-scaling-stroke"/></g><g id="uuid-c5862e67-f44e-47f7-b584-a5f9db94475a"><line class="uuid-916705e4-a869-4435-b87e-7bedd7ab69a2" x1="116.46" y1="109.22" x2="333.69" y2="109.22" vector-effect="non-scaling-stroke"/></g><g id="uuid-b52df907-d51f-4c34-9a56-a71fc0e32903"><line class="uuid-916705e4-a869-4435-b87e-7bedd7ab69a2" x1="612.39" y1="103.96" x2="831.16" y2="103.96" vector-effect="non-scaling-stroke"/></g><g id="uuid-5b90f08a-5aca-4ad7-8c9f-cd3ec3bd3be2"><line class="uuid-916705e4-a869-4435-b87e-7bedd7ab69a2" x1="116.46" y1="298.43" x2="332.43" y2="298.43" vector-effect="non-scaling-stroke"/></g><g id="uuid-745b97d0-b43a-48b4-8662-042bfed2a6f7"><path class="uuid-6bea152e-99ec-43aa-af5e-23fd841b91d1" d="m612.89,373.48h-280.11V0h280.11v373.48Zm-273.18-9.25h266.24V9.25h-266.24v354.98Z" vector-effect="non-scaling-stroke"/></g><g id="uuid-ca434732-c07a-4f8f-8aa2-04de1797f500"><path class="uuid-28d55f3b-a6c8-4f0f-af0d-3a766c670a78" d="m871.48,310.93h25.53c.97-2.25,2.27-4.5,3.48-6.41,1.93-3.04,3.98-5.78,5.19-7.26,3.22-3.94,5.23-8.68,5.82-13.68.58-4.99-.29-10.05-2.51-14.59-2.23-4.54-5.72-8.39-10.1-11.09-4.38-2.7-9.46-4.14-14.64-4.14s-10.27,1.43-14.65,4.13c-4.38,2.7-7.88,6.54-10.11,11.08-2.23,4.54-3.1,9.6-2.52,14.59.58,4.99,2.59,9.74,5.81,13.68,1.21,1.48,3.27,4.22,5.19,7.26,1.21,1.91,2.51,4.16,3.49,6.41l.02.02h0Zm37.75-10.77c3.77-4.61,6.13-10.17,6.82-16.04s-.34-11.81-2.95-17.14c-2.61-5.33-6.7-9.82-11.81-12.97-5.1-3.15-11.01-4.82-17.04-4.82s-11.94,1.67-17.04,4.81c-5.11,3.14-9.2,7.64-11.81,12.96-2.61,5.32-3.64,11.26-2.95,17.13.68,5.87,3.04,11.43,6.81,16.04,2.2,2.69,7.8,10.36,8.99,15.35h32.01c1.19-4.99,6.78-12.66,8.98-15.35v.03h-.01Z"/><path class="uuid-6bea152e-99ec-43aa-af5e-23fd841b91d1" d="m872.81,288.06l13.72-20.58v13.72h9.15l-13.72,20.58v-13.72h-9.15Z"/><path class="uuid-6bea152e-99ec-43aa-af5e-23fd841b91d1" d="m868.24,320.07h32.01v4.57h-32.01v-4.57Z"/><path class="uuid-28d55f3b-a6c8-4f0f-af0d-3a766c670a78" d="m895.68,333.79h-22.86v2.29h22.86v-2.29Zm-27.44-4.57v6.86c0,2.53,2.05,4.57,4.57,4.57h22.86c2.53,0,4.57-2.05,4.57-4.57v-6.86h-32.01.01Z"/></g><g id="uuid-6af0d51c-9c58-493c-8acc-4207e8406efe"><line class="uuid-916705e4-a869-4435-b87e-7bedd7ab69a2" x1="612.95" y1="298.43" x2="831.16" y2="298.43" vector-effect="non-scaling-stroke"/></g><path class="uuid-6bea152e-99ec-43aa-af5e-23fd841b91d1" d="m930.74,70.28h-5.18c-1.55,0-2.59,1.04-2.59,2.59s1.04,2.59,2.59,2.59h5.18c1.55,0,2.59-1.04,2.59-2.59s-1.04-2.59-2.59-2.59Z"/><path class="uuid-6bea152e-99ec-43aa-af5e-23fd841b91d1" d="m930.74,80.64h-5.18c-1.55,0-2.59,1.04-2.59,2.59s1.04,2.59,2.59,2.59h5.18c1.55,0,2.59-1.04,2.59-2.59s-1.04-2.59-2.59-2.59Z"/><path class="uuid-6bea152e-99ec-43aa-af5e-23fd841b91d1" d="m847.83,70.28h-5.18c-1.55,0-2.59,1.04-2.59,2.59s1.04,2.59,2.59,2.59h5.18c1.55,0,2.59-1.04,2.59-2.59s-1.04-2.59-2.59-2.59Z"/><path class="uuid-6bea152e-99ec-43aa-af5e-23fd841b91d1" d="m847.83,80.64h-5.18c-1.55,0-2.59,1.04-2.59,2.59s1.04,2.59,2.59,2.59h5.18c1.55,0,2.59-1.04,2.59-2.59s-1.04-2.59-2.59-2.59Z"/><path class="uuid-6bea152e-99ec-43aa-af5e-23fd841b91d1" d="m931.77,60.17l-33.68-15.55c-.26-.26-.78-.26-1.04-.26h-20.73c-.26,0-.78,0-1.04.26l-33.68,15.55c-1.04.52-1.81,1.81-1.55,2.85.26,1.3,1.3,2.07,2.59,2.07h27.98l-12.44,70.21c-.26,1.3.78,2.85,2.07,3.11h.52c1.3,0,2.33-.78,2.59-2.07l3.11-18.4,36.53,26.95c.52.26,1.04.52,1.55.52.78,0,1.55-.26,2.07-1.04.78-1.04.52-2.85-.52-3.63l-15.03-11.14,15.8-11.66,5.18,30.05h-46.12l14.77-10.88c1.04-.78,1.3-2.59.52-3.63s-2.59-1.3-3.63-.52l-20.21,15.03h-7c-.78,0-1.3.26-1.81.78l-5.18,5.18c-1.04,1.04-1.04,2.59,0,3.63,1.04,1.04,2.59,1.04,3.63,0l4.4-4.4h70.47l4.4,4.4c.52.52,1.3.78,1.81.78s1.3-.26,1.81-.78c1.04-1.04,1.04-2.59,0-3.63l-5.18-5.18c-.52-.52-1.04-.78-1.81-.78h-5.7l-14.51-82.91h27.98c1.3,0,2.33-.78,2.59-2.07.26-1.3-.26-2.33-1.55-2.85h.04,0Zm-25.91,51.82l-19.17,14.51-16.32-12.18,10.1-7.25c1.04-.78,1.55-2.33.52-3.63-.78-1.3-2.33-1.55-3.63-.52l-9.33,6.74,3.11-18.14,26.95,19.17c.52.26,1.04.52,1.55.52.78,0,1.55-.26,2.07-1.04.78-1.04.52-2.85-.52-3.63l-10.1-7.25,11.14-8.03s3.63,20.73,3.63,20.73Zm-8.55-30.83l-6.74-5.44,7.51-6.22,2.85,16.32-14.51,10.36-11.14-8.03,5.18-4.15c1.04-.78,1.3-2.59.26-3.63s-2.59-1.3-3.63-.26l-4.92,3.89,2.59-14.51,19.17,15.8c.52.52,1.04.52,1.55.52.78,0,1.55-.26,2.07-1.04.78-1.04.78-2.85-.26-3.63,0,0,.02.02.02.02Zm4.92-21.25l-.52-3.11c-.26-1.3-1.55-2.33-3.11-2.07-1.3.26-2.33,1.55-2.07,3.11l.26,2.07h-12.7c-1.55,0-2.59,1.04-2.59,2.59s1.04,2.59,2.59,2.59h11.4l-8.81,7.25-10.62-8.81,1.04-5.96c.26-1.3-.78-2.59-2.07-2.85s-2.85.78-3.11,2.07l-.52,3.11h-16.84l22.54-10.36h19.69l22.54,10.36h-17.1,0Z"/><path class="uuid-6bea152e-99ec-43aa-af5e-23fd841b91d1" d="m101.67,139.13l-3.83-56.49c-.05-.81-.72-1.43-1.53-1.43H5.38c-.81,0-1.48.63-1.53,1.43L0,139.38c-.03.42.12.84.41,1.15.29.31.7.49,1.12.49h48.58v7.21l-22.07,4.61c-.73.15-1.25.81-1.22,1.56s.59,1.37,1.34,1.47l23.5,3.07s.07.02.11.02h.14s.07-.02.11-.02l23.5-3.07c.74-.1,1.31-.72,1.34-1.47s-.49-1.41-1.22-1.56l-22.47-4.69v-7.12h46.98c.85,0,1.54-.69,1.54-1.54,0-.12-.01-.24-.04-.35h.02Zm-20.77-12.71l-2.11-1.82-.23-5.71,2.12-1.96h16.41l.64,9.48h-16.83Zm-76.94,0l.64-9.48h18.97l2.03,1.87-.24,5.92-1.95,1.68H3.96Zm20.74-32.33l1.84,1.69-.26,6.42-2.1,1.93H5.47l.68-10.04s18.55,0,18.55,0Zm70.84,0l.68,10.04h-16.09l-2.26-2.07-.25-6.2,1.93-1.77s15.99,0,15.99,0Zm-15.07,21.31l-2.13-1.84-.25-6.1,1.95-1.79h16.28l.66,9.73s-16.51,0-16.51,0Zm-25.84,11.01l-1.93-1.88v-5.63l2.27-1.96h20.25l1.79,1.66.25,6.16-1.7,1.66h-20.93Zm-25.94,0l-1.79-1.75.24-5.93,1.95-1.8h20.29l1.78,1.72v6.19l-1.81,1.56h-20.66Zm-23.98-11.01l.66-9.73h18.84l1.86,1.71-.26,6.31-1.98,1.71H4.71Zm44.5-21.31l1.95,1.7v6.44l-2.08,1.9h-19.47l-1.8-1.87.27-6.53,1.89-1.64s19.24,0,19.24,0Zm25.14,0l1.73,1.51.28,6.76-1.71,1.77h-20.12l-1.83-1.9v-6.52l1.73-1.62h19.92Zm-19.55,21.31l-2.1-1.88v-6.42l1.64-1.43h20.54l1.67,1.45.27,6.67-1.55,1.62h-20.47,0Zm-25.8,0l-1.65-1.71.26-6.43,1.82-1.59h19.69l2.04,1.88v6.23l-1.84,1.63h-20.32Zm46.88-24.65l-1.73,1.8h-19.64l-1.81-1.88v-6.4h22.92s.26,6.48.26,6.48Zm-24.72-.09l-2.1,1.89h-18.95l-1.82-1.89.26-6.38h22.62v6.38h-.01Zm-24.47,39.13l1.97-1.83h20.55l1.94,1.91v8.08h-24.8l.33-8.16h.01Zm26,8.16v-8.22l1.91-1.77h21.04l1.82,1.69.34,8.3s-25.11,0-25.11,0Zm42.74-45.39h-15.83l-2.19-2.01-.25-6.27h17.72l.56,8.28h0Zm-68.43-8.28l-.26,6.41-2.04,1.87H6.25l.56-8.28s20.19,0,20.19,0ZM3.86,127.96h19.42l1.87,1.84-.33,8.15H3.18l.68-9.99h0Zm46.26,23.41v4.26l-12.56-1.64,12.56-2.62Zm3.07,4.31v-4.4l12.96,2.71-12.96,1.69h0Zm26.14-17.73l-.33-8.06,1.97-1.93h16.86l.68,9.99h-19.18Zm-25.96-87.71c-5.67,0-10.29,4.62-10.29,10.29s4.62,10.29,10.29,10.29,10.29-4.62,10.29-10.29-4.62-10.29-10.29-10.29Zm0,18.65c-4.61,0-8.36-3.75-8.36-8.36s3.75-8.36,8.36-8.36,8.36,3.75,8.36,8.36-3.75,8.36-8.36,8.36Zm-15.87-13.38c0-.06,0-.13.02-.19.08-.25.36-.39.61-.31l2.64.86c.25.08.39.36.31.61-.07.2-.25.33-.46.33h0s-.1,0-.15-.02l-2.64-.86c-.19-.06-.31-.23-.33-.42Zm5.95-7.86c-.16-.22-.11-.52.11-.67h0c.22-.16.52-.11.67.11l1.63,2.24c.16.22.11.52-.11.67-.08.06-.19.09-.28.09-.15,0-.29-.07-.39-.2h0l-1.63-2.24Zm17.49,2.3c-.22-.16-.26-.46-.11-.67l1.63-2.24c.16-.22.46-.26.68-.11.21.16.26.46.11.67l-1.63,2.24c-.09.13-.24.2-.39.2-.1,0-.2-.03-.28-.09h-.01Zm4.71,6.44c-.08-.25.06-.53.31-.61l2.64-.86c.26-.08.53.06.61.31s-.06.53-.31.61l-2.64.86s-.1.02-.15.02c-.2,0-.39-.13-.46-.33Zm3.58,9.14c-.07.2-.26.33-.46.33-.05,0-.1,0-.15-.02l-2.64-.86c-.25-.08-.39-.35-.31-.61.08-.25.36-.39.61-.31l2.64.86c.26.08.39.35.31.61Zm-5.92,7.67c.16.21.11.52-.11.67-.09.06-.19.09-.28.09-.15,0-.3-.07-.39-.2l-1.63-2.24c-.16-.22-.11-.52.11-.67.21-.15.52-.11.67.11l1.63,2.24Zm-10.37,3.39v-2.77c0-.27.22-.48.48-.48.07,0,.13.01.19.04.17.07.29.24.29.44v2.77c0,.27-.22.48-.48.48s-.48-.22-.48-.48Zm-9.51-2.99v-.19c0-.06.04-.12.08-.17l1.63-2.24c.16-.22.46-.26.67-.11.11.08.17.19.19.32.02.12,0,.25-.09.36l-1.63,2.24c-.09.13-.24.2-.39.2-.1,0-.2-.03-.28-.09-.11-.08-.17-.19-.19-.32h0Zm-2.32-9.15c.08.25-.06.53-.31.61h0l-2.64.86s-.1.02-.15.02c-.2,0-.39-.13-.46-.33-.02-.06-.03-.13-.02-.19.02-.19.14-.36.33-.42l2.64-.86c.26-.08.53.06.61.31Zm11.75-17.43v-2.77c0-.27.22-.48.48-.48h0c.27,0,.48.22.48.48v2.77c0,.27-.21.48-.48.48s-.48-.22-.48-.48h0Z"/><g id="uuid-b7358478-f6cb-4fa9-930a-8e6b8cac1f59"><rect class="uuid-6bea152e-99ec-43aa-af5e-23fd841b91d1" x="496.16" y="23.48" width="99.05" height="24.87" vector-effect="non-scaling-stroke"/></g><g id="uuid-3d81fc20-4e72-44e2-9b24-d0d8089800c8"><rect class="uuid-6bea152e-99ec-43aa-af5e-23fd841b91d1" x="520.76" y="60.92" width="73.85" height="18.54" vector-effect="non-scaling-stroke"/></g><path class="uuid-6bea152e-99ec-43aa-af5e-23fd841b91d1" d="m49.13,245.94c-3.21,0-4.28.72-4.28,4.28v3.21h-9.64c-6.33,0-7.49,1.17-7.49,7.49v80.3c0,6.33,1.17,7.49,7.49,7.49h51.39c6.33,0,7.49-1.17,7.49-7.49v-80.3c0-6.33-1.17-7.49-7.49-7.49h-9.64v-3.21c0-3.56-1.07-4.29-4.28-4.29h-23.55,0Zm-13.92,22.48c0-8.56-1.07-7.49,7.49-7.49h36.4c8.56,0,7.49-1.07,7.49,7.49v65.31c0,8.56,1.07,7.49-7.49,7.49h-36.4c-8.56,0-7.49,1.07-7.49-7.49v-65.31h0Z"/></svg>